{"title":"Dont.Be.Afraid.of.the.Dark.2011.Uncropped.HDRip.XVID.AC3.HQ","uid":6712541,"size":658640270,"categoryP":"video","categoryS":"movies","magnet":"?xt=urn:btih:703bc48f7a47c4183dad1cf29812434691ba42b3&amp;dn=Dont.Be.Afraid.of.the.Dark.2011.Uncropped.HDRip.XVID.AC3.HQ&amp;tr=udp%3A%2F%2Ftracker.openbittorrent.com%3A80&amp;tr=udp%3A%2F%2Fopen.demonii.com%3A1337&amp;tr=udp%3A%2F%2Ftracker.coppersurfer.tk%3A6969&amp;tr=udp%3A%2F%2Fexodus.desync.com%3A6969","seeders":0,"leechers":0,"uploader":"DrSeeder","files":-1,"time":1317412694,"description":"pppppppppppppppp       TTTTTTTTTTTTTTTTTTTTTTTTTTTTT\npppppppp       pp      TTTTTTTTTTTTTTTTTTTTTTTTTTTTT    \npppppppp        pp     TT        TTTTTT           TT     \npppppppp         pp    TT        TTTTTT           TT \npppppppp         pp    T         TTTTTT            T\npppppppp         pp              TTTTTT\npppppppp         pp              TTTTTT\npppppppp        pp               TTTTTT\npppppppp       pp                TTTTTT\npppppppppppppppp                 TTTTTT\npppppppp                         TTTTTT\npppppppp                         TTTTTT\npppppppp                         TTTTTT\npppppppp                         TTTTTT \npppppppp        p     k   k ii   TTTTTT   EEEEEE     AA     M       M\npppppppp       p p    k  k  ii   TTTTTT   E          AA     MM     MM\npppppppp       p p    k k   ii   TTTTTT   E         AAAA    M M   M M\npppppppp       p p    kk    ii   TTTTTT   EEEEEE   A   A    M  M M  M\npppppppp      p   p   k k   ii   TTTTTT   E       AA   AA   M   M   M\npppppppp     pppppp   k  k  ii   TTTTTT   E       AAAAAAA   M       M \npppppppp     p     p  k   k ii   TTTTTT   EEEEEE A      AA  M       M\n..............................................................................\n                       DrSeeder &lt;a class=&quot;__cf_email__&quot; href=&quot;/cdn-cgi/l/email-protection&quot; data-cfemail=&quot;ee948f86878ad8dbd9ae89838f8782c08d8183&quot;&gt;[email&amp;#160;protected]&lt;/a&gt;&lt;script data-cfhash='f9e31' type=&quot;text/javascript&quot;&gt;\n/* &lt;![CDATA[ */!function(){try{var t=&quot;currentScript&quot;in document?document.currentScript:function(){for(var t=document.getElementsByTagName(&quot;script&quot;),e=t.length;e--;)if(t[e].getAttribute(&quot;data-cfhash&quot;))return t[e]}();if(t&amp;&amp;t.previousSibling){var e,r,n,i,c=t.previousSibling,a=c.getAttribute(&quot;data-cfemail&quot;);if(a){for(e=&quot;&quot;,r=parseInt(a.substr(0,2),16),n=2;a.length-n;n+=2)i=parseInt(a.substr(n,2),16)^r,e+=String.fromCharCode(i);e=document.createTextNode(e),c.parentNode.replaceChild(e,c)}t.parentNode.removeChild(t);}}catch(u){}}()/* ]]&gt; */&lt;/script&gt;\n..............................................................................\nComplete name                            : F:\\Dont.Be.Afraid.of.the.Dark.2011.Uncropped.HDRip.XVID.AC3.HQ\\Dont.Be.Afraid.of.the.Dark.2011.Uncropped.HDRip.XVID.AC3.HQ.Hive-CM8.mkv\nFormat                                   : Matroska\nFormat version                           : Version 1\nFile size                                : 623 MiB\nDuration                                 : 1h 39mn\nOverall bit rate                         : 876 Kbps\nEncoded date                             : UTC 2011-09-30 15:50:21\nWriting application                      : AVSMatroskaFile\nWriting library                          : libebml v0.7.7 + libmatroska v0.8.1\n\nVideo\nID                                       : 1\nFormat                                   : AVC\nFormat/Info                              : Advanced Video Codec\nFormat profile                           : &lt;a class=&quot;__cf_email__&quot; href=&quot;/cdn-cgi/l/email-protection&quot; data-cfemail=&quot;f4bc9d939cb4b8c1dac5&quot;&gt;[email&amp;#160;protected]&lt;/a&gt;&lt;script data-cfhash='f9e31' type=&quot;text/javascript&quot;&gt;\n/* &lt;![CDATA[ */!function(){try{var t=&quot;currentScript&quot;in document?document.currentScript:function(){for(var t=document.getElementsByTagName(&quot;script&quot;),e=t.length;e--;)if(t[e].getAttribute(&quot;data-cfhash&quot;))return t[e]}();if(t&amp;&amp;t.previousSibling){var e,r,n,i,c=t.previousSibling,a=c.getAttribute(&quot;data-cfemail&quot;);if(a){for(e=&quot;&quot;,r=parseInt(a.substr(0,2),16),n=2;a.length-n;n+=2)i=parseInt(a.substr(n,2),16)^r,e+=String.fromCharCode(i);e=document.createTextNode(e),c.parentNode.replaceChild(e,c)}t.parentNode.removeChild(t);}}catch(u){}}()/* ]]&gt; */&lt;/script&gt;\nFormat settings, CABAC                   : Yes\nFormat settings, ReFrames                : 1 frame\nCodec ID                                 : V_MPEG4/ISO/AVC\nDuration                                 : 1h 39mn\nBit rate                                 : 763 Kbps\nWidth                                    : 720 pixels\nHeight                                   : 394 pixels\nDisplay aspect ratio                     : 16:9\nFrame rate                               : 23.976 fps\nColor space                              : YUV\nChroma subsampling                       : 4:2:0\nBit depth                                : 8 bits\nScan type                                : Progressive\nBits/(Pixel*Frame)                       : 0.112\nStream size                              : 542 MiB (87%)\n\nAudio\nID                                       : 2\nFormat                                   : MPEG Audio\nFormat version                           : Version 1\nFormat profile                           : Layer 3\nCodec ID                                 : A_MPEG/L3\nCodec ID/Hint                            : MP3\nDuration                                 : 1h 39mn\nBit rate mode                            : Constant\nBit rate                                 : 96.0 Kbps\nChannel(s)                               : 2 channels\nSampling rate                            : 44.1 KHz\nCompression mode                         : Lossy\nStream size                              : 68.2 MiB (11%)\nWriting library                          : LAMELAME_MAJOR_VERSI","torrent":{"xt":"urn:btih:703bc48f7a47c4183dad1cf29812434691ba42b3","amp;dn":"Dont.Be.Afraid.of.the.Dark.2011.Uncropped.HDRip.XVID.AC3.HQ","amp;tr":["udp%3A%2F%2Ftracker.openbittorrent.com%3A80","udp%3A%2F%2Fopen.demonii.com%3A1337","udp%3A%2F%2Ftracker.coppersurfer.tk%3A6969","udp%3A%2F%2Fexodus.desync.com%3A6969"],"infoHash":"703bc48f7a47c4183dad1cf29812434691ba42b3","infoHashBuffer":{"type":"Buffer","data":[112,59,196,143,122,71,196,24,61,173,28,242,152,18,67,70,145,186,66,179]},"announce":[],"urlList":[]}}